<svg width="107" height="107" viewBox="0 0 107 107" fill="none" xmlns="http://www.w3.org/2000/svg">
<rect width="107" height="107" fill="#192C19"/>
<path d="M10.7102 31.9901V29.4545H22.6562V31.9901H18.2031V44H15.1634V31.9901H10.7102ZM24.6236 44V29.4545H27.6989V35.456H33.9418V29.4545H37.0099V44H33.9418V37.9915H27.6989V44H24.6236ZM39.5455 44V29.4545H49.3466V31.9901H42.6207V35.456H48.8423V37.9915H42.6207V41.4645H49.375V44H39.5455ZM11.2642 68V53.4545H17.0881C18.1581 53.4545 19.0507 53.6132 19.7656 53.9304C20.4806 54.2476 21.018 54.688 21.3778 55.2514C21.7377 55.8101 21.9176 56.4541 21.9176 57.1832C21.9176 57.7514 21.804 58.2509 21.5767 58.6818C21.3494 59.108 21.0369 59.4583 20.6392 59.733C20.2462 60.0028 19.7964 60.1946 19.2898 60.3082V60.4503C19.8438 60.474 20.3622 60.6302 20.8452 60.919C21.3329 61.2079 21.7282 61.6127 22.0312 62.1335C22.3343 62.6496 22.4858 63.2652 22.4858 63.9801C22.4858 64.7519 22.294 65.4408 21.9105 66.0469C21.5317 66.6482 20.9706 67.1241 20.2273 67.4744C19.4839 67.8248 18.5677 68 17.4787 68H11.2642ZM14.3395 65.4858H16.8466C17.7036 65.4858 18.3286 65.3224 18.7216 64.9957C19.1146 64.6643 19.3111 64.224 19.3111 63.6747C19.3111 63.2723 19.214 62.9171 19.0199 62.6094C18.8258 62.3016 18.5488 62.0601 18.1889 61.8849C17.8338 61.7098 17.41 61.6222 16.9176 61.6222H14.3395V65.4858ZM14.3395 59.5412H16.6193C17.0407 59.5412 17.4148 59.4678 17.7415 59.321C18.0729 59.1695 18.3333 58.9564 18.5227 58.6818C18.7169 58.4072 18.8139 58.0781 18.8139 57.6946C18.8139 57.169 18.6269 56.7453 18.2528 56.4233C17.8835 56.1013 17.358 55.9403 16.6761 55.9403H14.3395V59.5412ZM37.8533 60.7273C37.8533 62.3134 37.5527 63.6629 36.9513 64.7756C36.3548 65.8883 35.5404 66.7382 34.5082 67.3253C33.4807 67.9077 32.3254 68.1989 31.0423 68.1989C29.7496 68.1989 28.5896 67.9053 27.5621 67.3182C26.5347 66.7311 25.7227 65.8812 25.1261 64.7685C24.5295 63.6558 24.2312 62.3087 24.2312 60.7273C24.2312 59.1411 24.5295 57.7917 25.1261 56.679C25.7227 55.5663 26.5347 54.7187 27.5621 54.1364C28.5896 53.5492 29.7496 53.2557 31.0423 53.2557C32.3254 53.2557 33.4807 53.5492 34.5082 54.1364C35.5404 54.7187 36.3548 55.5663 36.9513 56.679C37.5527 57.7917 37.8533 59.1411 37.8533 60.7273ZM34.7354 60.7273C34.7354 59.6998 34.5816 58.8333 34.2738 58.1278C33.9708 57.4223 33.5423 56.8873 32.9883 56.5227C32.4343 56.1581 31.7856 55.9759 31.0423 55.9759C30.2989 55.9759 29.6502 56.1581 29.0962 56.5227C28.5423 56.8873 28.1114 57.4223 27.8036 58.1278C27.5006 58.8333 27.3491 59.6998 27.3491 60.7273C27.3491 61.7547 27.5006 62.6212 27.8036 63.3267C28.1114 64.0322 28.5423 64.5672 29.0962 64.9318C29.6502 65.2964 30.2989 65.4787 31.0423 65.4787C31.7856 65.4787 32.4343 65.2964 32.9883 64.9318C33.5423 64.5672 33.9708 64.0322 34.2738 63.3267C34.5816 62.6212 34.7354 61.7547 34.7354 60.7273ZM53.4979 60.7273C53.4979 62.3134 53.1972 63.6629 52.5959 64.7756C51.9993 65.8883 51.1849 66.7382 50.1527 67.3253C49.1252 67.9077 47.9699 68.1989 46.6868 68.1989C45.3942 68.1989 44.2341 67.9053 43.2067 67.3182C42.1792 66.7311 41.3672 65.8812 40.7706 64.7685C40.174 63.6558 39.8757 62.3087 39.8757 60.7273C39.8757 59.1411 40.174 57.7917 40.7706 56.679C41.3672 55.5663 42.1792 54.7187 43.2067 54.1364C44.2341 53.5492 45.3942 53.2557 46.6868 53.2557C47.9699 53.2557 49.1252 53.5492 50.1527 54.1364C51.1849 54.7187 51.9993 55.5663 52.5959 56.679C53.1972 57.7917 53.4979 59.1411 53.4979 60.7273ZM50.38 60.7273C50.38 59.6998 50.2261 58.8333 49.9183 58.1278C49.6153 57.4223 49.1868 56.8873 48.6328 56.5227C48.0788 56.1581 47.4302 55.9759 46.6868 55.9759C45.9434 55.9759 45.2947 56.1581 44.7408 56.5227C44.1868 56.8873 43.7559 57.4223 43.4482 58.1278C43.1451 58.8333 42.9936 59.6998 42.9936 60.7273C42.9936 61.7547 43.1451 62.6212 43.4482 63.3267C43.7559 64.0322 44.1868 64.5672 44.7408 64.9318C45.2947 65.2964 45.9434 65.4787 46.6868 65.4787C47.4302 65.4787 48.0788 65.2964 48.6328 64.9318C49.1868 64.5672 49.6153 64.0322 49.9183 63.3267C50.2261 62.6212 50.38 61.7547 50.38 60.7273ZM55.7759 68V53.4545H58.8512V59.8679H59.043L64.2773 53.4545H67.9634L62.5657 59.9673L68.0273 68H64.3484L60.364 62.0199L58.8512 63.8665V68H55.7759ZM19.1548 81.6378C19.098 81.0649 18.8542 80.6198 18.4233 80.3026C17.9924 79.9853 17.4077 79.8267 16.669 79.8267C16.1671 79.8267 15.7434 79.8977 15.3977 80.0398C15.0521 80.1771 14.7869 80.3688 14.6023 80.6151C14.4223 80.8613 14.3324 81.1406 14.3324 81.4531C14.3229 81.7135 14.3774 81.9408 14.4957 82.1349C14.6188 82.3291 14.7869 82.4972 15 82.6392C15.2131 82.7765 15.4593 82.8973 15.7386 83.0014C16.018 83.1009 16.3163 83.1861 16.6335 83.2571L17.9403 83.5696C18.5748 83.7116 19.1572 83.901 19.6875 84.1378C20.2178 84.3745 20.6771 84.6657 21.0653 85.0114C21.4536 85.357 21.7543 85.7642 21.9673 86.233C22.1851 86.7017 22.2964 87.2391 22.3011 87.8452C22.2964 88.7353 22.0691 89.5071 21.6193 90.1605C21.1742 90.8092 20.5303 91.3134 19.6875 91.6733C18.8494 92.0284 17.8385 92.206 16.6548 92.206C15.4806 92.206 14.4579 92.026 13.5866 91.6662C12.7202 91.3063 12.0431 90.7737 11.5554 90.0682C11.0724 89.358 10.8191 88.4796 10.7955 87.4332H13.7713C13.8045 87.9209 13.9441 88.3281 14.1903 88.6548C14.4413 88.9768 14.7751 89.2206 15.1918 89.3864C15.6132 89.5473 16.089 89.6278 16.6193 89.6278C17.1402 89.6278 17.5923 89.5521 17.9759 89.4006C18.3641 89.2491 18.6648 89.0384 18.8778 88.7685C19.0909 88.4986 19.1974 88.1884 19.1974 87.8381C19.1974 87.5114 19.1004 87.2367 18.9062 87.0142C18.7169 86.7917 18.4375 86.6023 18.0682 86.446C17.7036 86.2898 17.2562 86.1477 16.7259 86.0199L15.142 85.6222C13.9157 85.3239 12.9474 84.8575 12.2372 84.223C11.527 83.5885 11.1742 82.7339 11.179 81.6591C11.1742 80.7784 11.4086 80.009 11.8821 79.3509C12.3603 78.6927 13.0161 78.179 13.8494 77.8097C14.6828 77.4403 15.6297 77.2557 16.6903 77.2557C17.7699 77.2557 18.7121 77.4403 19.517 77.8097C20.3267 78.179 20.9564 78.6927 21.4062 79.3509C21.8561 80.009 22.0881 80.7713 22.1023 81.6378H19.1548ZM24.3697 92V77.4545H27.445V83.456H33.6879V77.4545H36.756V92H33.6879V85.9915H27.445V92H24.3697ZM39.2915 92V77.4545H49.0927V79.9901H42.3668V83.456H48.5884V85.9915H42.3668V89.4645H49.1211V92H39.2915ZM51.5376 92V77.4545H54.6129V89.4645H60.8487V92H51.5376ZM62.8853 92V77.4545H72.516V79.9901H65.9606V83.456H71.8768V85.9915H65.9606V92H62.8853Z" fill="white"/>
</svg>
